<svg xmlns="http://www.w3.org/2000/svg" viewBox="0 0 100 100">
  <!-- Cloud shape - modern gradient style -->
  <defs>
    <linearGradient id="cloudGrad" x1="0%" y1="0%" x2="100%" y2="100%">
      <stop offset="0%" style="stop-color:#4f46e5;stop-opacity:1" />
      <stop offset="100%" style="stop-color:#3b82f6;stop-opacity:1" />
    </linearGradient>
  </defs>
  
  <!-- Cloud -->
  <path d="M 20 50 
           Q 15 40 20 32 
           Q 20 22 30 22 
           Q 30 12 42 12 
           Q 52 8 58 18 
           Q 68 18 74 28 
           Q 80 28 80 38 
           Q 86 38 86 50 
           Q 86 62 76 62 
           Q 70 72 58 72 
           Q 48 78 38 72 
           Q 28 78 22 68 
           Q 16 68 16 58 
           Q 10 58 10 50 
           Q 10 42 16 42 
           Q 16 38 20 50 Z" 
        fill="url(#cloudGrad)" stroke="#1e40af" stroke-width="1.5"/>
  
  <!-- AI Neural Network - top layer -->
  <circle cx="35" cy="38" r="3.5" fill="#ffffff" stroke="#e0e7ff" stroke-width="0.5"/>
  <circle cx="50" cy="32" r="3.5" fill="#ffffff" stroke="#e0e7ff" stroke-width="0.5"/>
  <circle cx="65" cy="38" r="3.5" fill="#ffffff" stroke="#e0e7ff" stroke-width="0.5"/>
  
  <!-- AI Neural Network - bottom layer -->
  <circle cx="38" cy="58" r="3.5" fill="#ffffff" stroke="#e0e7ff" stroke-width="0.5"/>
  <circle cx="62" cy="58" r="3.5" fill="#ffffff" stroke="#e0e7ff" stroke-width="0.5"/>
  
  <!-- AI Neural Network connections -->
  <line x1="35" y1="38" x2="50" y2="32" stroke="#ffffff" stroke-width="1.2" opacity="0.9"/>
  <line x1="50" y1="32" x2="65" y2="38" stroke="#ffffff" stroke-width="1.2" opacity="0.9"/>
  <line x1="35" y1="38" x2="38" y2="58" stroke="#ffffff" stroke-width="1.2" opacity="0.9"/>
  <line x1="50" y1="32" x2="38" y2="58" stroke="#ffffff" stroke-width="1.2" opacity="0.9"/>
  <line x1="50" y1="32" x2="62" y2="58" stroke="#ffffff" stroke-width="1.2" opacity="0.9"/>
  <line x1="65" y1="38" x2="62" y2="58" stroke="#ffffff" stroke-width="1.2" opacity="0.9"/>
  <line x1="38" y1="58" x2="62" y2="58" stroke="#ffffff" stroke-width="1.2" opacity="0.9"/>
</svg>
